PathFileType	4	(X/Y/Z)	/Users/itak/Documents/Research/Walk-IL/dataset/trc/00426_00167.trc
DataRate	CameraRate	NumFrames	NumMarkers	Units	OrigDataRate	OrigDataStartFrame	OrigNumFrames
100.000000	100.000000	4	53	mm	100.000000	0	602
Frame#	Time	RPSI			LPSI			L3			STRN			T10			C7			CLAV			RBAK			LBAK			LSHO			LUPA			LAEL			LAOL			LWTS			LWPS			LFRA			LIFD			LHPS			LHTS			RSHO			RUPA			RAEL			RAOL			RWTS			RWPS			RFRA			RIFD			RHTS			RHPS			RBHD			LFHD			RFHD			LBHD			LHIP			RHIP			RASI			LASI			LKNE			LTHI			LANK			LTIP			LTOE			LMT1			LMT5			LHEE			RKNE			RTHI			RANK			RTIP			RTOE			RMT1			RMT5			RHEE			
		X1	Y1	Z1	X2	Y2	Z2	X3	Y3	Z3	X4	Y4	Z4	X5	Y5	Z5	X6	Y6	Z6	X7	Y7	Z7	X8	Y8	Z8	X9	Y9	Z9	X10	Y10	Z10	X11	Y11	Z11	X12	Y12	Z12	X13	Y13	Z13	X14	Y14	Z14	X15	Y15	Z15	X16	Y16	Z16	X17	Y17	Z17	X18	Y18	Z18	X19	Y19	Z19	X20	Y20	Z20	X21	Y21	Z21	X22	Y22	Z22	X23	Y23	Z23	X24	Y24	Z24	X25	Y25	Z25	X26	Y26	Z26	X27	Y27	Z27	X28	Y28	Z28	X29	Y29	Z29	X30	Y30	Z30	X31	Y31	Z31	X32	Y32	Z32	X33	Y33	Z33	X34	Y34	Z34	X35	Y35	Z35	X36	Y36	Z36	X37	Y37	Z37	X38	Y38	Z38	X39	Y39	Z39	X40	Y40	Z40	X41	Y41	Z41	X42	Y42	Z42	X43	Y43	Z43	X44	Y44	Z44	X45	Y45	Z45	X46	Y46	Z46	X47	Y47	Z47	X48	Y48	Z48	X49	Y49	Z49	X50	Y50	Z50	X51	Y51	Z51	X52	Y52	Z52	X53	Y53	Z53	

1	0	-1227.83837890625	972.8223266601562	-539.4107055664062	-1150.171508789062	968.461669921875	-657.7542114257812	-1181.7939453125	1073.057983398438	-584.1175537109375	-942.0899658203125	1254.723266601562	-450.4541320800781	-1187.752197265625	1196.69580078125	-598.6865844726562	-1130.3193359375	1461.784912109375	-550.1093139648438	-968.128662109375	1369.927856445312	-470.0947875976562	-1237.875244140625	1345.46826171875	-503.1530151367188	-1105.346313476562	1416.785400390625	-653.969970703125	-974.6624145507812	1432.6416015625	-664.8464965820312	-927.9302978515625	1315.816284179688	-755.4691162109375	-884.8095092773438	1102.597412109375	-776.1909790039062	-986.1843872070312	1082.071044921875	-764.2835083007812	-829.0811157226562	898.6895141601562	-706.5855102539062	-839.31494140625	891.2205810546875	-779.7987060546875	-858.5586547851562	1016.269653320312	-777.3179321289062	-805.220947265625	733.3883666992188	-735.2914428710938	-825.1122436523438	815.430419921875	-787.5623779296875	-803.286865234375	813.2114868164062	-719.05517578125	-1153.0966796875	1425.125366210938	-376.7752685546875	-1207.238037109375	1362.845947265625	-321.4063415527344	-1230.953857421875	1079.187255859375	-263.2190551757812	-1257.002319335938	1059.503784179688	-323.2435913085938	-1111.400146484375	885.1198120117188	-245.7449645996094	-1194.701904296875	864.9420776367188	-226.0762939453125	-1229.725341796875	1021.274291992188	-250.9071960449219	-1102.39404296875	727.2440185546875	-229.987060546875	-1097.290161132812	787.5338134765625	-223.7346038818359	-1172.424682617188	779.4756469726562	-217.1293182373047	-1115.811889648438	1648.975952148438	-443.9580383300781	-913.0792236328125	1674.918212890625	-483.5736389160156	-995.4912719726562	1674.03271484375	-380.1754455566406	-1018.369750976562	1654.104125976562	-592.9610595703125	-975.6904907226562	859.2039184570312	-680.8003540039062	-1203.101440429688	873.250244140625	-351.8664855957031	-1082.123046875	915.1791381835938	-353.1654052734375	-935.0296020507812	901.176513671875	-563.893798828125	-978.4426879882812	436.0127563476562	-621.0234985351562	-952.8309326171875	592.0146484375	-634.18603515625	-1063.742309570312	36.86136245727539	-654.9564208984375	-989.5595092773438	279.4194641113281	-629.5053100585938	-916.4635620117188	44.10722351074219	-473.3329467773438	-994.2036743164062	47.91329193115234	-490.1143493652344	-932.746337890625	47.54568099975586	-584.36572265625	-1137.780395507812	38.09762573242188	-644.294677734375	-1138.960815429688	476.4121398925781	-340.6432495117188	-1161.253540039062	739.2254638671875	-313.0148315429688	-1194.341552734375	54.18234634399414	-371.8578186035156	-1155.735717773438	330.2228393554688	-331.7757873535156	-987.9912109375	61.12122344970703	-299.0368957519531	-1021.895568847656	61.69780349731445	-363.8505859375	-1093.008544921875	59.12983322143555	-285.8358764648438	-1226.11328125	44.22256469726562	-446.5883483886719	
2	0.01	-1227.755615234375	972.7958984375	-538.8209838867188	-1150.278198242188	968.45458984375	-657.311767578125	-1181.844604492188	1072.996826171875	-583.4979248046875	-941.9409790039062	1254.605224609375	-450.1235656738281	-1187.727661132812	1196.6328125	-598.1516723632812	-1130.232177734375	1461.698364257812	-549.5472412109375	-967.9796142578125	1369.82177734375	-469.709228515625	-1237.786376953125	1345.37255859375	-502.517333984375	-1105.373046875	1416.796875	-653.4066162109375	-974.7091064453125	1432.575927734375	-664.44140625	-928.0990600585938	1315.826293945312	-755.1900634765625	-885.0029296875	1102.691772460938	-776.2575073242188	-986.3748779296875	1082.119750976562	-764.0865478515625	-829.14306640625	898.6611938476562	-707.1743774414062	-839.6484985351562	891.31494140625	-780.363037109375	-858.8068237304688	1016.359191894531	-777.6143188476562	-805.35205078125	733.418212890625	-736.2836303710938	-825.5070190429688	815.522216796875	-788.3826904296875	-803.4281616210938	813.168212890625	-719.929443359375	-1152.883911132812	1424.999145507812	-376.19091796875	-1207.10400390625	1362.707153320312	-320.9197082519531	-1231.29345703125	1079.023315429688	-263.0389099121094	-1257.28857421875	1059.474975585938	-323.1146240234375	-1112.214233398438	884.6996459960938	-245.5865020751953	-1195.596435546875	864.6721801757812	-226.1325531005859	-1230.211669921875	1021.091186523438	-250.8167419433594	-1103.52099609375	726.7998046875	-229.8835296630859	-1098.3154296875	787.0765991210938	-223.5820770263672	-1173.492553710938	779.14453125	-217.1704559326172	-1115.611328125	1648.877563476562	-443.2424011230469	-912.9667358398438	1674.657592773438	-482.9549865722656	-995.1647338867188	1673.774047851562	-379.5127563476562	-1018.206665039062	1654.063110351562	-592.31005859375	-975.7324829101562	859.22265625	-680.5454711914062	-1202.948486328125	873.0449829101562	-351.5101623535156	-1081.786865234375	915.0397338867188	-352.6247253417969	-934.9925537109375	901.1506958007812	-563.572998046875	-978.296630859375	436.0698852539062	-620.7464599609375	-952.750244140625	592.0131225585938	-633.8206787109375	-1063.745971679688	36.88028335571289	-654.942626953125	-989.3433837890625	279.4525146484375	-629.2671508789062	-916.4612426757812	44.10072708129883	-473.3176574707031	-994.1976928710938	47.90077972412109	-490.1081848144531	-932.74951171875	47.55252075195312	-584.3439331054688	-1137.783935546875	38.11244964599609	-644.2798461914062	-1139.404418945312	476.2019958496094	-340.7014770507812	-1161.381469726562	739.0399169921875	-312.7455749511719	-1193.812622070312	53.68752288818359	-371.307861328125	-1155.872924804688	330.0674743652344	-331.6404113769531	-987.3211059570312	59.66375732421875	-298.9186096191406	-1021.363220214844	60.75089645385742	-363.716552734375	-1092.263916015625	57.9245491027832	-285.4192810058594	-1225.839233398438	44.18017196655273	-445.9691467285156	
3	0.02	-1227.651977539062	972.736572265625	-538.0693969726562	-1150.410766601562	968.4544677734375	-656.7359008789062	-1181.898803710938	1072.912231445312	-582.707275390625	-941.7672729492188	1254.459716796875	-449.6806640625	-1187.728149414062	1196.552612304688	-597.4166259765625	-1130.146362304688	1461.595947265625	-548.793212890625	-967.815673828125	1369.682861328125	-469.193603515625	-1237.69482421875	1345.254028320312	-501.6637878417969	-1105.4384765625	1416.78857421875	-652.6596069335938	-974.7994995117188	1432.495727539062	-663.8999633789062	-928.352783203125	1315.838256835938	-754.8128662109375	-885.2850952148438	1102.8095703125	-776.3173828125	-986.6311645507812	1082.168579101562	-763.81982421875	-829.2242431640625	898.6361694335938	-707.865234375	-840.0739135742188	891.4353637695312	-781.01611328125	-859.1483764648438	1016.461486816406	-777.9462280273438	-805.5213012695312	733.4632568359375	-737.443115234375	-825.977294921875	815.64404296875	-789.3303833007812	-803.604736328125	813.135986328125	-720.94482421875	-1152.625122070312	1424.834350585938	-375.4139709472656	-1206.9208984375	1362.528930664062	-320.2303771972656	-1231.674072265625	1078.81884765625	-262.7455139160156	-1257.619262695312	1059.446411132812	-322.8761596679688	-1113.227172851562	884.1378784179688	-245.3564147949219	-1196.71533203125	864.3233032226562	-226.1532592773438	-1230.789916992188	1020.862121582031	-250.6243133544922	-1104.98681640625	726.201171875	-229.7696685791016	-1099.6328125	786.4564208984375	-223.3945770263672	-1174.862548828125	778.7194213867188	-217.1986236572266	-1115.365356445312	1648.74951171875	-442.3079223632812	-912.8196411132812	1674.344482421875	-482.1554870605469	-994.7769165039062	1673.448486328125	-378.6524353027344	-1018.032531738281	1654.009643554688	-591.4601440429688	-975.8011474609375	859.2574462890625	-680.1885986328125	-1202.77783203125	872.7816772460938	-351.0256042480469	-1081.452026367188	914.8194580078125	-351.9346923828125	-934.9817504882812	901.107177734375	-563.1415405273438	-978.133544921875	436.1334228515625	-620.4006958007812	-952.63037109375	592.0249633789062	-633.3729858398438	-1063.751220703125	36.9015007019043	-654.9283447265625	-989.1244506835938	279.4751586914062	-629	-916.4603881835938	44.09557723999023	-473.3024597167969	-994.1925659179688	47.88561248779297	-490.1034240722656	-932.7534790039062	47.55869293212891	-584.3232421875	-1137.789184570312	38.12641143798828	-644.2628173828125	-1139.99560546875	475.9256896972656	-340.7849731445312	-1161.592651367188	738.7926635742188	-312.3908386230469	-1193.242553710938	53.11432266235352	-370.7452392578125	-1156.119018554688	329.8623046875	-331.5281677246094	-986.62451171875	57.87199020385742	-298.7352294921875	-1020.789367675781	59.6262092590332	-363.5282592773438	-1091.483154296875	56.52593994140625	-284.9098510742188	-1225.5087890625	44.11241149902344	-445.3363037109375	
4	0.03	-1227.532348632812	972.6377563476562	-537.1752319335938	-1150.5634765625	968.4603881835938	-656.0325317382812	-1181.954833984375	1072.804565429688	-581.7640991210938	-941.5836791992188	1254.29443359375	-449.12744140625	-1187.768798828125	1196.45751953125	-596.4830322265625	-1130.078002929688	1461.483276367188	-547.8546752929688	-967.655517578125	1369.515380859375	-468.5526123046875	-1237.613891601562	1345.118408203125	-500.6018676757812	-1105.5556640625	1416.752685546875	-651.7408447265625	-974.9464111328125	1432.405151367188	-663.227783203125	-928.7017211914062	1315.852172851562	-754.3397216796875	-885.6636962890625	1102.945190429688	-776.355224609375	-986.9550170898438	1082.211547851562	-763.4824829101562	-829.326904296875	898.6212158203125	-708.6019287109375	-840.5771484375	891.5781860351562	-781.7023315429688	-859.58349609375	1016.569458007812	-778.2788696289062	-805.727783203125	733.5259399414062	-738.6779174804688	-826.49609375	815.7935791015625	-790.3235473632812	-803.8160400390625	813.1217041015625	-722.0181884765625	-1152.335815429688	1424.636108398438	-374.4529418945312	-1206.688354492188	1362.318237304688	-319.3321838378906	-1232.0576171875	1078.582885742188	-262.3126525878906	-1257.966796875	1059.423706054688	-322.4978637695312	-1114.392822265625	883.4410400390625	-245.048828125	-1198.00830078125	863.9053344726562	-226.1118774414062	-1231.417114257812	1020.597717285156	-250.2984619140625	-1106.758056640625	725.4547119140625	-229.6562652587891	-1101.201293945312	785.678466796875	-223.1779479980469	-1176.48876953125	778.2128295898438	-217.2013549804688	-1115.088256835938	1648.595092773438	-441.1747741699219	-912.6431274414062	1673.998046875	-481.1963500976562	-994.3541870117188	1673.069458007812	-377.6153869628906	-1017.869445800781	1653.9453125	-590.4299926757812	-975.8965454101562	859.310302734375	-679.7227783203125	-1202.604125976562	872.4710083007812	-350.4158630371094	-1081.175415039062	914.5106811523438	-351.1193542480469	-935.0081787109375	901.0470581054688	-562.6000366210938	-977.97509765625	436.1958923339844	-620.0051879882812	-952.4816284179688	592.0552368164062	-632.8692016601562	-1063.7578125	36.92315292358398	-654.9152221679688	-988.9351806640625	279.4813537597656	-628.7289428710938	-916.4612426757812	44.09379196166992	-473.2904357910156	-994.1891479492188	47.86916351318359	-490.1008605957031	-932.7578125	47.56314086914062	-584.3067016601562	-1137.7958984375	38.13743209838867	-644.2451171875	-1140.72900390625	475.5885009765625	-340.8947143554688	-1161.89892578125	738.4901733398438	-311.9557495117188	-1192.695678710938	52.50488662719727	-370.2501220703125	-1156.499267578125	329.6098022460938	-331.472900390625	-985.9956665039062	55.89582443237305	-298.4805603027344	-1020.244262695312	58.42871475219727	-363.2815551757812	-1090.770385742188	55.06297302246094	-284.3399658203125	-1225.140258789062	43.99969100952148	-444.7854309082031	
